<svg xmlns="http://www.w3.org/2000/svg"  viewBox="0 0 24 24" width="24px" height="24px" baseProfile="basic"><linearGradient id="eeIEqWlms5jUDxubjyk_Ga" x1="3.879" x2="20.121" y1="3.879" y2="20.121" gradientUnits="userSpaceOnUse"><stop offset="0" stop-color="#fff" stop-opacity=".6"/><stop offset="1" stop-color="#fff" stop-opacity=".3"/></linearGradient><path fill="url(#eeIEqWlms5jUDxubjyk_Ga)" d="M18,21H6c-1.657,0-3-1.343-3-3V6c0-1.657,1.343-3,3-3h12c1.657,0,3,1.343,3,3v12 C21,19.657,19.657,21,18,21z"/><linearGradient id="eeIEqWlms5jUDxubjyk_Gb" x1="3.879" x2="20.121" y1="3.879" y2="20.121" gradientUnits="userSpaceOnUse"><stop offset="0" stop-color="#fff" stop-opacity=".6"/><stop offset=".493" stop-color="#fff" stop-opacity="0"/><stop offset=".997" stop-color="#fff" stop-opacity=".3"/></linearGradient><path fill="url(#eeIEqWlms5jUDxubjyk_Gb)" d="M18,3.5c1.378,0,2.5,1.122,2.5,2.5v12 c0,1.379-1.122,2.5-2.5,2.5H6c-1.378,0-2.5-1.121-2.5-2.5V6c0-1.378,1.122-2.5,2.5-2.5H18 M18,3H6C4.343,3,3,4.343,3,6v12 c0,1.657,1.343,3,3,3h12c1.657,0,3-1.343,3-3V6C21,4.343,19.657,3,18,3L18,3z"/><linearGradient id="eeIEqWlms5jUDxubjyk_Gc" x1="8.799" x2="13.654" y1="9.501" y2="14.356" gradientUnits="userSpaceOnUse"><stop offset="0" stop-color="#fff" stop-opacity=".7"/><stop offset=".519" stop-color="#fff" stop-opacity=".45"/><stop offset="1" stop-color="#fff" stop-opacity=".55"/></linearGradient><path fill="url(#eeIEqWlms5jUDxubjyk_Gc)" d="M18.297,8.287l-3.115-3.085	C14.744,4.768,14,5.079,14,5.695V8h-0.669C9.289,8,6,11.289,6,15.331V17c0,0.553,0.447,1,1,1s1-0.447,1-1v-1.669	C8,12.392,10.392,10,13.331,10H14v2.305c0,0.617,0.744,0.927,1.182,0.493l3.115-3.085C18.693,9.32,18.693,8.68,18.297,8.287z"/></svg>